<mxfile host="65bd71144e">
    <diagram id="9bGXkvnBnweaRexEZzzs" name="第 1 页">
        <mxGraphModel dx="2614" dy="633" grid="1" gridSize="10" guides="1" tooltips="1" connect="1" arrows="1" fold="1" page="1" pageScale="1" pageWidth="827" pageHeight="1169" math="0" shadow="0">
            <root>
                <mxCell id="0"/>
                <mxCell id="1" parent="0"/>
                <mxCell id="5" value="" style="edgeStyle=none;html=1;rounded=0;" parent="1" source="2" target="4" edge="1">
                    <mxGeometry relative="1" as="geometry"/>
                </mxCell>
                <mxCell id="2" value="Lithium启动流程" style="ellipse;whiteSpace=wrap;html=1;rounded=0;" parent="1" vertex="1">
                    <mxGeometry x="294" y="110" width="120" height="80" as="geometry"/>
                </mxCell>
                <mxCell id="9" value="" style="edgeStyle=none;html=1;rounded=0;" parent="1" source="4" target="8" edge="1">
                    <mxGeometry relative="1" as="geometry"/>
                </mxCell>
                <mxCell id="4" value="启动LithiumCli，检查资源文件，包括配置文件和必须的目录" style="whiteSpace=wrap;html=1;rounded=0;" parent="1" vertex="1">
                    <mxGeometry x="294" y="280" width="120" height="60" as="geometry"/>
                </mxCell>
                <mxCell id="6" value="Lithium" style="text;strokeColor=none;fillColor=none;html=1;fontSize=24;fontStyle=1;verticalAlign=middle;align=center;rounded=0;" parent="1" vertex="1">
                    <mxGeometry x="304" y="50" width="100" height="40" as="geometry"/>
                </mxCell>
                <mxCell id="8" value="资源是否完整" style="rhombus;whiteSpace=wrap;html=1;rounded=0;" parent="1" vertex="1">
                    <mxGeometry x="314" y="410" width="80" height="80" as="geometry"/>
                </mxCell>
                <mxCell id="57" value="" style="edgeStyle=none;html=1;" parent="1" source="14" target="56" edge="1">
                    <mxGeometry relative="1" as="geometry"/>
                </mxCell>
                <mxCell id="14" value="启动Lithium服务器，并且开启进程监视" style="whiteSpace=wrap;html=1;rounded=0;" parent="1" vertex="1">
                    <mxGeometry x="294" y="580" width="120" height="60" as="geometry"/>
                </mxCell>
                <mxCell id="20" value="" style="endArrow=classic;html=1;entryX=0.5;entryY=0;entryDx=0;entryDy=0;exitX=0.5;exitY=1;exitDx=0;exitDy=0;rounded=0;" parent="1" source="8" target="14" edge="1">
                    <mxGeometry relative="1" as="geometry">
                        <mxPoint x="440" y="520" as="sourcePoint"/>
                        <mxPoint x="410" y="600" as="targetPoint"/>
                    </mxGeometry>
                </mxCell>
                <mxCell id="21" value="完整" style="edgeLabel;resizable=0;html=1;align=center;verticalAlign=middle;rounded=0;" parent="20" connectable="0" vertex="1">
                    <mxGeometry relative="1" as="geometry"/>
                </mxCell>
                <mxCell id="27" value="" style="edgeStyle=none;html=1;rounded=0;" parent="1" source="22" target="26" edge="1">
                    <mxGeometry relative="1" as="geometry"/>
                </mxCell>
                <mxCell id="22" value="检查是否有可执行文件错误（无法修复）" style="whiteSpace=wrap;html=1;rounded=0;" parent="1" vertex="1">
                    <mxGeometry x="454" y="420" width="120" height="60" as="geometry"/>
                </mxCell>
                <mxCell id="24" value="" style="endArrow=classic;html=1;exitX=1;exitY=0.5;exitDx=0;exitDy=0;entryX=0;entryY=0.5;entryDx=0;entryDy=0;rounded=0;" parent="1" source="8" target="22" edge="1">
                    <mxGeometry relative="1" as="geometry">
                        <mxPoint x="450" y="520" as="sourcePoint"/>
                        <mxPoint x="550" y="520" as="targetPoint"/>
                    </mxGeometry>
                </mxCell>
                <mxCell id="25" value="不完整" style="edgeLabel;resizable=0;html=1;align=center;verticalAlign=middle;rounded=0;" parent="24" connectable="0" vertex="1">
                    <mxGeometry relative="1" as="geometry"/>
                </mxCell>
                <mxCell id="26" value="二进制文件是否完整" style="rhombus;whiteSpace=wrap;html=1;rounded=0;" parent="1" vertex="1">
                    <mxGeometry x="674" y="410" width="80" height="80" as="geometry"/>
                </mxCell>
                <mxCell id="30" value="检查是否有网络" style="whiteSpace=wrap;html=1;rounded=0;" parent="1" vertex="1">
                    <mxGeometry x="814" y="420" width="120" height="60" as="geometry"/>
                </mxCell>
                <mxCell id="32" value="" style="endArrow=classic;html=1;exitX=1;exitY=0.5;exitDx=0;exitDy=0;entryX=0;entryY=0.5;entryDx=0;entryDy=0;rounded=0;" parent="1" source="26" target="30" edge="1">
                    <mxGeometry relative="1" as="geometry">
                        <mxPoint x="800" y="640" as="sourcePoint"/>
                        <mxPoint x="900" y="640" as="targetPoint"/>
                    </mxGeometry>
                </mxCell>
                <mxCell id="33" value="不完整" style="edgeLabel;resizable=0;html=1;align=center;verticalAlign=middle;rounded=0;" parent="32" connectable="0" vertex="1">
                    <mxGeometry relative="1" as="geometry"/>
                </mxCell>
                <mxCell id="36" value="创建配置文件" style="whiteSpace=wrap;html=1;rounded=0;" parent="1" vertex="1">
                    <mxGeometry x="654" y="580" width="120" height="60" as="geometry"/>
                </mxCell>
                <mxCell id="38" value="" style="endArrow=classic;html=1;exitX=0.5;exitY=1;exitDx=0;exitDy=0;entryX=0.5;entryY=0;entryDx=0;entryDy=0;rounded=0;" parent="1" source="26" target="36" edge="1">
                    <mxGeometry relative="1" as="geometry">
                        <mxPoint x="630" y="520" as="sourcePoint"/>
                        <mxPoint x="730" y="520" as="targetPoint"/>
                    </mxGeometry>
                </mxCell>
                <mxCell id="39" value="完整" style="edgeLabel;resizable=0;html=1;align=center;verticalAlign=middle;rounded=0;" parent="38" connectable="0" vertex="1">
                    <mxGeometry relative="1" as="geometry"/>
                </mxCell>
                <mxCell id="65" value="" style="edgeStyle=none;html=1;" parent="1" source="48" target="64" edge="1">
                    <mxGeometry relative="1" as="geometry"/>
                </mxCell>
                <mxCell id="66" value="成功" style="edgeLabel;html=1;align=center;verticalAlign=middle;resizable=0;points=[];" parent="65" vertex="1" connectable="0">
                    <mxGeometry x="-0.1452" relative="1" as="geometry">
                        <mxPoint as="offset"/>
                    </mxGeometry>
                </mxCell>
                <mxCell id="48" value="尝试下载文件" style="rounded=0;whiteSpace=wrap;html=1;" parent="1" vertex="1">
                    <mxGeometry x="814" y="580" width="120" height="60" as="geometry"/>
                </mxCell>
                <mxCell id="50" value="" style="endArrow=classic;html=1;entryX=0.5;entryY=1;entryDx=0;entryDy=0;exitX=1;exitY=0.5;exitDx=0;exitDy=0;" parent="1" source="48" target="233" edge="1">
                    <mxGeometry relative="1" as="geometry">
                        <mxPoint x="1134" y="609.71" as="sourcePoint"/>
                        <mxPoint x="1094" y="480" as="targetPoint"/>
                        <Array as="points">
                            <mxPoint x="1100" y="610"/>
                        </Array>
                    </mxGeometry>
                </mxCell>
                <mxCell id="51" value="下载失败" style="edgeLabel;resizable=0;html=1;align=center;verticalAlign=middle;" parent="50" connectable="0" vertex="1">
                    <mxGeometry relative="1" as="geometry"/>
                </mxCell>
                <mxCell id="75" value="" style="edgeStyle=none;html=1;" parent="1" source="56" target="74" edge="1">
                    <mxGeometry relative="1" as="geometry"/>
                </mxCell>
                <mxCell id="56" value="加载环境变量，确定配置文件位置" style="whiteSpace=wrap;html=1;rounded=0;" parent="1" vertex="1">
                    <mxGeometry x="294" y="720" width="120" height="60" as="geometry"/>
                </mxCell>
                <mxCell id="58" value="" style="endArrow=classic;html=1;exitX=1;exitY=0.5;exitDx=0;exitDy=0;entryX=0;entryY=0.5;entryDx=0;entryDy=0;" parent="1" source="30" edge="1">
                    <mxGeometry relative="1" as="geometry">
                        <mxPoint x="1060" y="560" as="sourcePoint"/>
                        <mxPoint x="1034" y="450.0000000000001" as="targetPoint"/>
                    </mxGeometry>
                </mxCell>
                <mxCell id="59" value="无网络" style="edgeLabel;resizable=0;html=1;align=center;verticalAlign=middle;" parent="58" connectable="0" vertex="1">
                    <mxGeometry relative="1" as="geometry"/>
                </mxCell>
                <mxCell id="60" value="" style="endArrow=classic;html=1;exitX=0.5;exitY=1;exitDx=0;exitDy=0;" parent="1" source="30" target="48" edge="1">
                    <mxGeometry relative="1" as="geometry">
                        <mxPoint x="900" y="560" as="sourcePoint"/>
                        <mxPoint x="1000" y="560" as="targetPoint"/>
                    </mxGeometry>
                </mxCell>
                <mxCell id="61" value="有网络" style="edgeLabel;resizable=0;html=1;align=center;verticalAlign=middle;" parent="60" connectable="0" vertex="1">
                    <mxGeometry relative="1" as="geometry"/>
                </mxCell>
                <mxCell id="62" value="如果没有则默认为可执行文件目录" style="text;html=1;strokeColor=none;fillColor=none;align=center;verticalAlign=middle;whiteSpace=wrap;rounded=0;" parent="1" vertex="1">
                    <mxGeometry x="420" y="735" width="60" height="30" as="geometry"/>
                </mxCell>
                <mxCell id="63" value="" style="endArrow=classic;html=1;exitX=0;exitY=0.5;exitDx=0;exitDy=0;entryX=1;entryY=0.5;entryDx=0;entryDy=0;" parent="1" source="36" target="14" edge="1">
                    <mxGeometry width="50" height="50" relative="1" as="geometry">
                        <mxPoint x="410" y="620" as="sourcePoint"/>
                        <mxPoint x="460" y="570" as="targetPoint"/>
                    </mxGeometry>
                </mxCell>
                <mxCell id="64" value="校验文件" style="rounded=0;whiteSpace=wrap;html=1;" parent="1" vertex="1">
                    <mxGeometry x="814" y="720" width="120" height="60" as="geometry"/>
                </mxCell>
                <mxCell id="67" value="" style="endArrow=classic;html=1;exitX=1;exitY=0.5;exitDx=0;exitDy=0;entryX=0.5;entryY=1;entryDx=0;entryDy=0;" parent="1" source="64" target="233" edge="1">
                    <mxGeometry relative="1" as="geometry">
                        <mxPoint x="980" y="650" as="sourcePoint"/>
                        <mxPoint x="1094" y="480" as="targetPoint"/>
                        <Array as="points">
                            <mxPoint x="1100" y="750"/>
                        </Array>
                    </mxGeometry>
                </mxCell>
                <mxCell id="68" value="校验失败" style="edgeLabel;resizable=0;html=1;align=center;verticalAlign=middle;" parent="67" connectable="0" vertex="1">
                    <mxGeometry relative="1" as="geometry"/>
                </mxCell>
                <mxCell id="77" value="" style="edgeStyle=none;html=1;" parent="1" source="74" target="76" edge="1">
                    <mxGeometry relative="1" as="geometry"/>
                </mxCell>
                <mxCell id="74" value="读取配置文件" style="whiteSpace=wrap;html=1;rounded=0;" parent="1" vertex="1">
                    <mxGeometry x="294" y="860" width="120" height="60" as="geometry"/>
                </mxCell>
                <mxCell id="79" value="" style="edgeStyle=none;html=1;" parent="1" source="76" target="78" edge="1">
                    <mxGeometry relative="1" as="geometry"/>
                </mxCell>
                <mxCell id="76" value="开始加载模组" style="whiteSpace=wrap;html=1;rounded=0;" parent="1" vertex="1">
                    <mxGeometry x="294" y="1000" width="120" height="60" as="geometry"/>
                </mxCell>
                <mxCell id="147" value="" style="edgeStyle=none;html=1;" parent="1" source="78" target="146" edge="1">
                    <mxGeometry relative="1" as="geometry"/>
                </mxCell>
                <mxCell id="78" value="获取所有合法的模组子文件夹列表" style="whiteSpace=wrap;html=1;rounded=0;" parent="1" vertex="1">
                    <mxGeometry x="294" y="1140" width="120" height="60" as="geometry"/>
                </mxCell>
                <mxCell id="83" value="检查单个文件夹是否合法的逻辑" style="text;html=1;strokeColor=none;fillColor=none;align=center;verticalAlign=middle;whiteSpace=wrap;rounded=0;" parent="1" vertex="1">
                    <mxGeometry x="105" y="1070" width="90" height="30" as="geometry"/>
                </mxCell>
                <mxCell id="90" value="" style="edgeStyle=none;html=1;" parent="1" source="84" target="89" edge="1">
                    <mxGeometry relative="1" as="geometry"/>
                </mxCell>
                <mxCell id="91" value="不含有" style="edgeLabel;html=1;align=center;verticalAlign=middle;resizable=0;points=[];" parent="90" vertex="1" connectable="0">
                    <mxGeometry x="-0.1778" relative="1" as="geometry">
                        <mxPoint as="offset"/>
                    </mxGeometry>
                </mxCell>
                <mxCell id="84" value="检查目录中是否含有package.json&lt;br&gt;package.xml" style="rounded=0;whiteSpace=wrap;html=1;" parent="1" vertex="1">
                    <mxGeometry x="90" y="1140" width="120" height="60" as="geometry"/>
                </mxCell>
                <mxCell id="94" value="" style="edgeStyle=none;html=1;" parent="1" source="85" target="93" edge="1">
                    <mxGeometry relative="1" as="geometry"/>
                </mxCell>
                <mxCell id="85" value="检查是否含有必要的参数" style="whiteSpace=wrap;html=1;rounded=0;" parent="1" vertex="1">
                    <mxGeometry x="90" y="1280" width="120" height="60" as="geometry"/>
                </mxCell>
                <mxCell id="87" value="" style="endArrow=classic;html=1;exitX=0.5;exitY=1;exitDx=0;exitDy=0;entryX=0.5;entryY=0;entryDx=0;entryDy=0;" parent="1" source="84" target="85" edge="1">
                    <mxGeometry relative="1" as="geometry">
                        <mxPoint x="130" y="1270" as="sourcePoint"/>
                        <mxPoint x="230" y="1270" as="targetPoint"/>
                    </mxGeometry>
                </mxCell>
                <mxCell id="88" value="含有" style="edgeLabel;resizable=0;html=1;align=center;verticalAlign=middle;" parent="87" connectable="0" vertex="1">
                    <mxGeometry relative="1" as="geometry"/>
                </mxCell>
                <mxCell id="89" value="标记为异常模组" style="whiteSpace=wrap;html=1;rounded=0;" parent="1" vertex="1">
                    <mxGeometry x="-110" y="1140" width="120" height="60" as="geometry"/>
                </mxCell>
                <mxCell id="92" value="" style="endArrow=classic;html=1;entryX=0.5;entryY=1;entryDx=0;entryDy=0;exitX=0;exitY=0.5;exitDx=0;exitDy=0;" parent="1" source="85" target="89" edge="1">
                    <mxGeometry width="50" height="50" relative="1" as="geometry">
                        <mxPoint x="100" y="1300" as="sourcePoint"/>
                        <mxPoint x="150" y="1250" as="targetPoint"/>
                        <Array as="points">
                            <mxPoint x="-50" y="1310"/>
                        </Array>
                    </mxGeometry>
                </mxCell>
                <mxCell id="96" value="" style="edgeStyle=none;html=1;" parent="1" source="93" target="95" edge="1">
                    <mxGeometry relative="1" as="geometry"/>
                </mxCell>
                <mxCell id="99" value="" style="edgeStyle=none;html=1;" parent="1" source="93" target="98" edge="1">
                    <mxGeometry relative="1" as="geometry"/>
                </mxCell>
                <mxCell id="100" value="失败" style="edgeLabel;html=1;align=center;verticalAlign=middle;resizable=0;points=[];" parent="99" vertex="1" connectable="0">
                    <mxGeometry x="-0.1063" y="1" relative="1" as="geometry">
                        <mxPoint as="offset"/>
                    </mxGeometry>
                </mxCell>
                <mxCell id="93" value="加载动态库" style="whiteSpace=wrap;html=1;rounded=0;" parent="1" vertex="1">
                    <mxGeometry x="90" y="1420" width="120" height="60" as="geometry"/>
                </mxCell>
                <mxCell id="95" value="寻找是否有入口函数符号并检查返回值是否正确" style="whiteSpace=wrap;html=1;rounded=0;" parent="1" vertex="1">
                    <mxGeometry x="90" y="1560" width="120" height="60" as="geometry"/>
                </mxCell>
                <mxCell id="97" value="成功" style="text;html=1;align=center;verticalAlign=middle;resizable=0;points=[];autosize=1;strokeColor=none;fillColor=none;" parent="1" vertex="1">
                    <mxGeometry x="125" y="1505" width="50" height="30" as="geometry"/>
                </mxCell>
                <mxCell id="105" value="" style="edgeStyle=none;html=1;" parent="1" source="98" target="104" edge="1">
                    <mxGeometry relative="1" as="geometry"/>
                </mxCell>
                <mxCell id="98" value="抛出异常" style="whiteSpace=wrap;html=1;rounded=0;" parent="1" vertex="1">
                    <mxGeometry x="-110" y="1420" width="120" height="60" as="geometry"/>
                </mxCell>
                <mxCell id="101" value="" style="endArrow=classic;html=1;exitX=0.5;exitY=0;exitDx=0;exitDy=0;" parent="1" source="98" edge="1">
                    <mxGeometry width="50" height="50" relative="1" as="geometry">
                        <mxPoint x="-130" y="1340" as="sourcePoint"/>
                        <mxPoint x="-50" y="1200" as="targetPoint"/>
                    </mxGeometry>
                </mxCell>
                <mxCell id="104" value="是否处于捕获异常模式" style="rhombus;whiteSpace=wrap;html=1;rounded=0;" parent="1" vertex="1">
                    <mxGeometry x="-290" y="1410" width="80" height="80" as="geometry"/>
                </mxCell>
                <mxCell id="106" value="跳过此次加载" style="whiteSpace=wrap;html=1;rounded=0;" parent="1" vertex="1">
                    <mxGeometry x="-310" y="1580" width="120" height="60" as="geometry"/>
                </mxCell>
                <mxCell id="109" value="" style="endArrow=classic;html=1;exitX=0.5;exitY=1;exitDx=0;exitDy=0;entryX=0.5;entryY=0;entryDx=0;entryDy=0;" parent="1" source="104" target="106" edge="1">
                    <mxGeometry relative="1" as="geometry">
                        <mxPoint x="-180" y="1530" as="sourcePoint"/>
                        <mxPoint x="-80" y="1530" as="targetPoint"/>
                    </mxGeometry>
                </mxCell>
                <mxCell id="110" value="是" style="edgeLabel;resizable=0;html=1;align=center;verticalAlign=middle;" parent="109" connectable="0" vertex="1">
                    <mxGeometry relative="1" as="geometry"/>
                </mxCell>
                <mxCell id="111" value="崩溃" style="whiteSpace=wrap;html=1;rounded=0;" parent="1" vertex="1">
                    <mxGeometry x="-470" y="1420" width="120" height="60" as="geometry"/>
                </mxCell>
                <mxCell id="113" value="" style="endArrow=classic;html=1;exitX=0;exitY=0.5;exitDx=0;exitDy=0;entryX=1;entryY=0.5;entryDx=0;entryDy=0;" parent="1" source="104" target="111" edge="1">
                    <mxGeometry relative="1" as="geometry">
                        <mxPoint x="-380" y="1440" as="sourcePoint"/>
                        <mxPoint x="-280" y="1440" as="targetPoint"/>
                    </mxGeometry>
                </mxCell>
                <mxCell id="114" value="否" style="edgeLabel;resizable=0;html=1;align=center;verticalAlign=middle;" parent="113" connectable="0" vertex="1">
                    <mxGeometry relative="1" as="geometry"/>
                </mxCell>
                <mxCell id="120" value="" style="edgeStyle=none;html=1;exitX=0.5;exitY=1;exitDx=0;exitDy=0;entryX=0.5;entryY=0;entryDx=0;entryDy=0;" parent="1" source="115" target="119" edge="1">
                    <mxGeometry relative="1" as="geometry"/>
                </mxCell>
                <mxCell id="115" value="获取对应的shared_ptr指针" style="whiteSpace=wrap;html=1;rounded=0;" parent="1" vertex="1">
                    <mxGeometry x="90" y="1700" width="120" height="60" as="geometry"/>
                </mxCell>
                <mxCell id="117" value="" style="endArrow=classic;html=1;exitX=0.5;exitY=1;exitDx=0;exitDy=0;" parent="1" source="95" target="115" edge="1">
                    <mxGeometry relative="1" as="geometry">
                        <mxPoint x="140" y="1610" as="sourcePoint"/>
                        <mxPoint x="240" y="1610" as="targetPoint"/>
                    </mxGeometry>
                </mxCell>
                <mxCell id="118" value="是" style="edgeLabel;resizable=0;html=1;align=center;verticalAlign=middle;" parent="117" connectable="0" vertex="1">
                    <mxGeometry relative="1" as="geometry"/>
                </mxCell>
                <mxCell id="119" value="存入GSPM中" style="whiteSpace=wrap;html=1;rounded=0;" parent="1" vertex="1">
                    <mxGeometry x="30" y="1840" width="120" height="60" as="geometry"/>
                </mxCell>
                <mxCell id="133" value="" style="edgeStyle=none;html=1;entryX=0.5;entryY=0;entryDx=0;entryDy=0;" parent="1" source="121" target="132" edge="1">
                    <mxGeometry relative="1" as="geometry"/>
                </mxCell>
                <mxCell id="121" value="记录模组信息" style="whiteSpace=wrap;html=1;rounded=0;" parent="1" vertex="1">
                    <mxGeometry x="150" y="1840" width="120" height="60" as="geometry"/>
                </mxCell>
                <mxCell id="131" value="" style="endArrow=classic;html=1;exitX=0.5;exitY=1;exitDx=0;exitDy=0;entryX=0.5;entryY=0;entryDx=0;entryDy=0;" parent="1" source="115" target="121" edge="1">
                    <mxGeometry width="50" height="50" relative="1" as="geometry">
                        <mxPoint x="120" y="1830" as="sourcePoint"/>
                        <mxPoint x="170" y="1780" as="targetPoint"/>
                    </mxGeometry>
                </mxCell>
                <mxCell id="132" value="加载结束" style="whiteSpace=wrap;html=1;rounded=0;" parent="1" vertex="1">
                    <mxGeometry x="90" y="1980" width="120" height="60" as="geometry"/>
                </mxCell>
                <mxCell id="134" value="" style="endArrow=classic;html=1;exitX=0.5;exitY=1;exitDx=0;exitDy=0;entryX=0.5;entryY=0;entryDx=0;entryDy=0;" parent="1" source="119" target="132" edge="1">
                    <mxGeometry width="50" height="50" relative="1" as="geometry">
                        <mxPoint x="120" y="1910" as="sourcePoint"/>
                        <mxPoint x="170" y="1860" as="targetPoint"/>
                    </mxGeometry>
                </mxCell>
                <mxCell id="139" value="" style="endArrow=classic;html=1;exitX=0.002;exitY=0.579;exitDx=0;exitDy=0;exitPerimeter=0;entryX=0.5;entryY=1;entryDx=0;entryDy=0;" parent="1" source="115" target="141" edge="1">
                    <mxGeometry relative="1" as="geometry">
                        <mxPoint x="50" y="1650" as="sourcePoint"/>
                        <mxPoint x="10" y="1670" as="targetPoint"/>
                        <Array as="points">
                            <mxPoint x="-50" y="1735"/>
                        </Array>
                    </mxGeometry>
                </mxCell>
                <mxCell id="140" value="异常" style="edgeLabel;resizable=0;html=1;align=center;verticalAlign=middle;" parent="139" connectable="0" vertex="1">
                    <mxGeometry relative="1" as="geometry"/>
                </mxCell>
                <mxCell id="141" value="卸载当前动态库" style="whiteSpace=wrap;html=1;rounded=0;" parent="1" vertex="1">
                    <mxGeometry x="-110" y="1560" width="120" height="60" as="geometry"/>
                </mxCell>
                <mxCell id="143" value="" style="endArrow=classic;html=1;exitX=0;exitY=0.5;exitDx=0;exitDy=0;entryX=1;entryY=0.5;entryDx=0;entryDy=0;" parent="1" source="95" target="141" edge="1">
                    <mxGeometry relative="1" as="geometry">
                        <mxPoint x="-90" y="1510" as="sourcePoint"/>
                        <mxPoint x="10" y="1510" as="targetPoint"/>
                    </mxGeometry>
                </mxCell>
                <mxCell id="144" value="否" style="edgeLabel;resizable=0;html=1;align=center;verticalAlign=middle;" parent="143" connectable="0" vertex="1">
                    <mxGeometry relative="1" as="geometry"/>
                </mxCell>
                <mxCell id="145" value="" style="endArrow=classic;html=1;exitX=0.5;exitY=0;exitDx=0;exitDy=0;entryX=0.5;entryY=1;entryDx=0;entryDy=0;" parent="1" source="141" target="98" edge="1">
                    <mxGeometry width="50" height="50" relative="1" as="geometry">
                        <mxPoint x="-70" y="1530" as="sourcePoint"/>
                        <mxPoint x="-20" y="1480" as="targetPoint"/>
                    </mxGeometry>
                </mxCell>
                <mxCell id="149" value="" style="edgeStyle=none;html=1;" parent="1" source="146" target="148" edge="1">
                    <mxGeometry relative="1" as="geometry"/>
                </mxCell>
                <mxCell id="146" value="根据依赖项整理加载顺序并生成列表" style="whiteSpace=wrap;html=1;rounded=0;" parent="1" vertex="1">
                    <mxGeometry x="294" y="1280" width="120" height="60" as="geometry"/>
                </mxCell>
                <mxCell id="152" value="" style="edgeStyle=none;html=1;" parent="1" source="148" target="151" edge="1">
                    <mxGeometry relative="1" as="geometry"/>
                </mxCell>
                <mxCell id="148" value="多线程加载所有列表中的模组" style="whiteSpace=wrap;html=1;rounded=0;" parent="1" vertex="1">
                    <mxGeometry x="294" y="1420" width="120" height="60" as="geometry"/>
                </mxCell>
                <mxCell id="170" value="" style="edgeStyle=none;html=1;" parent="1" source="151" target="169" edge="1">
                    <mxGeometry relative="1" as="geometry"/>
                </mxCell>
                <mxCell id="151" value="根据顺序统一运行组件的Initialize函数" style="whiteSpace=wrap;html=1;rounded=0;" parent="1" vertex="1">
                    <mxGeometry x="294" y="1560" width="120" height="60" as="geometry"/>
                </mxCell>
                <mxCell id="163" value="" style="edgeStyle=none;html=1;" parent="1" source="153" target="162" edge="1">
                    <mxGeometry relative="1" as="geometry"/>
                </mxCell>
                <mxCell id="153" value="卸载所有依赖异常模组的模组" style="whiteSpace=wrap;html=1;rounded=0;" parent="1" vertex="1">
                    <mxGeometry x="494" y="1560" width="120" height="60" as="geometry"/>
                </mxCell>
                <mxCell id="157" value="" style="endArrow=classic;html=1;exitX=1;exitY=0.5;exitDx=0;exitDy=0;entryX=0;entryY=0.5;entryDx=0;entryDy=0;" parent="1" source="151" target="153" edge="1">
                    <mxGeometry relative="1" as="geometry">
                        <mxPoint x="300" y="1710" as="sourcePoint"/>
                        <mxPoint x="400" y="1710" as="targetPoint"/>
                    </mxGeometry>
                </mxCell>
                <mxCell id="158" value="异常" style="edgeLabel;resizable=0;html=1;align=center;verticalAlign=middle;" parent="157" connectable="0" vertex="1">
                    <mxGeometry relative="1" as="geometry"/>
                </mxCell>
                <mxCell id="159" value="" style="whiteSpace=wrap;html=1;rounded=0;" parent="1" vertex="1">
                    <mxGeometry x="1148" y="3130" width="120" height="60" as="geometry"/>
                </mxCell>
                <mxCell id="162" value="是否处于异常捕获模式" style="rhombus;whiteSpace=wrap;html=1;rounded=0;" parent="1" vertex="1">
                    <mxGeometry x="714" y="1550" width="80" height="80" as="geometry"/>
                </mxCell>
                <mxCell id="166" value="" style="endArrow=classic;html=1;exitX=1;exitY=0.5;exitDx=0;exitDy=0;entryX=0;entryY=0.5;entryDx=0;entryDy=0;" parent="1" source="162" edge="1">
                    <mxGeometry relative="1" as="geometry">
                        <mxPoint x="774" y="1519.73" as="sourcePoint"/>
                        <mxPoint x="854" y="1590" as="targetPoint"/>
                    </mxGeometry>
                </mxCell>
                <mxCell id="167" value="否" style="edgeLabel;resizable=0;html=1;align=center;verticalAlign=middle;" parent="166" connectable="0" vertex="1">
                    <mxGeometry relative="1" as="geometry"/>
                </mxCell>
                <mxCell id="225" value="" style="edgeStyle=none;html=1;" parent="1" source="169" edge="1">
                    <mxGeometry relative="1" as="geometry">
                        <mxPoint x="354" y="1840" as="targetPoint"/>
                    </mxGeometry>
                </mxCell>
                <mxCell id="169" value="启动服务器" style="whiteSpace=wrap;html=1;rounded=0;" parent="1" vertex="1">
                    <mxGeometry x="294" y="1700" width="120" height="60" as="geometry"/>
                </mxCell>
                <mxCell id="173" value="是否存在Lithium进程" style="rhombus;whiteSpace=wrap;html=1;rounded=0;" parent="1" vertex="1">
                    <mxGeometry x="114" y="270" width="80" height="80" as="geometry"/>
                </mxCell>
                <mxCell id="177" value="" style="endArrow=classic;html=1;entryX=1;entryY=0.5;entryDx=0;entryDy=0;exitX=0;exitY=0.5;exitDx=0;exitDy=0;" parent="1" source="4" target="173" edge="1">
                    <mxGeometry width="50" height="50" relative="1" as="geometry">
                        <mxPoint x="290" y="310" as="sourcePoint"/>
                        <mxPoint x="260" y="220" as="targetPoint"/>
                    </mxGeometry>
                </mxCell>
                <mxCell id="184" value="" style="edgeStyle=none;html=1;" parent="1" source="179" target="183" edge="1">
                    <mxGeometry relative="1" as="geometry"/>
                </mxCell>
                <mxCell id="179" value="通知已有服务器，由已有服务器广播" style="whiteSpace=wrap;html=1;rounded=0;" parent="1" vertex="1">
                    <mxGeometry x="94" y="440" width="120" height="60" as="geometry"/>
                </mxCell>
                <mxCell id="181" value="" style="endArrow=classic;html=1;exitX=0.5;exitY=1;exitDx=0;exitDy=0;" parent="1" source="173" target="179" edge="1">
                    <mxGeometry relative="1" as="geometry">
                        <mxPoint x="140" y="390" as="sourcePoint"/>
                        <mxPoint x="240" y="390" as="targetPoint"/>
                    </mxGeometry>
                </mxCell>
                <mxCell id="182" value="存在" style="edgeLabel;resizable=0;html=1;align=center;verticalAlign=middle;" parent="181" connectable="0" vertex="1">
                    <mxGeometry relative="1" as="geometry"/>
                </mxCell>
                <mxCell id="183" value="客户端确认" style="rhombus;whiteSpace=wrap;html=1;rounded=0;" parent="1" vertex="1">
                    <mxGeometry x="114" y="570" width="80" height="80" as="geometry"/>
                </mxCell>
                <mxCell id="185" value="杀死旧进程" style="whiteSpace=wrap;html=1;rounded=0;" parent="1" vertex="1">
                    <mxGeometry x="94" y="740" width="120" height="60" as="geometry"/>
                </mxCell>
                <mxCell id="187" value="" style="endArrow=classic;html=1;exitX=0.5;exitY=1;exitDx=0;exitDy=0;entryX=0.5;entryY=0;entryDx=0;entryDy=0;" parent="1" source="183" target="185" edge="1">
                    <mxGeometry relative="1" as="geometry">
                        <mxPoint x="140" y="630" as="sourcePoint"/>
                        <mxPoint x="240" y="630" as="targetPoint"/>
                    </mxGeometry>
                </mxCell>
                <mxCell id="188" value="同意" style="edgeLabel;resizable=0;html=1;align=center;verticalAlign=middle;" parent="187" connectable="0" vertex="1">
                    <mxGeometry relative="1" as="geometry"/>
                </mxCell>
                <mxCell id="191" value="" style="endArrow=classic;html=1;exitX=0;exitY=0.5;exitDx=0;exitDy=0;entryX=1;entryY=0.5;entryDx=0;entryDy=0;" parent="1" source="183" target="193" edge="1">
                    <mxGeometry relative="1" as="geometry">
                        <mxPoint x="140" y="630" as="sourcePoint"/>
                        <mxPoint x="54" y="610" as="targetPoint"/>
                    </mxGeometry>
                </mxCell>
                <mxCell id="192" value="拒绝" style="edgeLabel;resizable=0;html=1;align=center;verticalAlign=middle;" parent="191" connectable="0" vertex="1">
                    <mxGeometry relative="1" as="geometry"/>
                </mxCell>
                <mxCell id="193" value="强制启动" style="rhombus;whiteSpace=wrap;html=1;" parent="1" vertex="1">
                    <mxGeometry x="-30" y="570" width="80" height="80" as="geometry"/>
                </mxCell>
                <mxCell id="199" value="本次加载合理失败" style="ellipse;whiteSpace=wrap;html=1;" parent="1" vertex="1">
                    <mxGeometry x="-210" y="570" width="120" height="80" as="geometry"/>
                </mxCell>
                <mxCell id="200" value="" style="endArrow=classic;html=1;exitX=0;exitY=0.5;exitDx=0;exitDy=0;entryX=1;entryY=0.5;entryDx=0;entryDy=0;" parent="1" source="193" target="199" edge="1">
                    <mxGeometry relative="1" as="geometry">
                        <mxPoint y="680" as="sourcePoint"/>
                        <mxPoint x="100" y="680" as="targetPoint"/>
                    </mxGeometry>
                </mxCell>
                <mxCell id="201" value="否" style="edgeLabel;resizable=0;html=1;align=center;verticalAlign=middle;" parent="200" connectable="0" vertex="1">
                    <mxGeometry relative="1" as="geometry"/>
                </mxCell>
                <mxCell id="202" value="" style="endArrow=classic;html=1;exitX=1;exitY=0.5;exitDx=0;exitDy=0;entryX=0;entryY=0.5;entryDx=0;entryDy=0;" parent="1" source="185" target="14" edge="1">
                    <mxGeometry width="50" height="50" relative="1" as="geometry">
                        <mxPoint x="170" y="700" as="sourcePoint"/>
                        <mxPoint x="220" y="650" as="targetPoint"/>
                        <Array as="points">
                            <mxPoint x="250" y="770"/>
                            <mxPoint x="250" y="610"/>
                        </Array>
                    </mxGeometry>
                </mxCell>
                <mxCell id="205" value="" style="endArrow=classic;html=1;exitX=0.5;exitY=1;exitDx=0;exitDy=0;entryX=0;entryY=0.5;entryDx=0;entryDy=0;" parent="1" source="193" target="14" edge="1">
                    <mxGeometry relative="1" as="geometry">
                        <mxPoint x="-30" y="680" as="sourcePoint"/>
                        <mxPoint x="10" y="840" as="targetPoint"/>
                        <Array as="points">
                            <mxPoint x="10" y="850"/>
                            <mxPoint x="250" y="850"/>
                            <mxPoint x="250" y="610"/>
                        </Array>
                    </mxGeometry>
                </mxCell>
                <mxCell id="206" value="是" style="edgeLabel;resizable=0;html=1;align=center;verticalAlign=middle;" parent="205" connectable="0" vertex="1">
                    <mxGeometry relative="1" as="geometry"/>
                </mxCell>
                <mxCell id="210" value="" style="edgeStyle=none;html=1;" parent="1" source="207" target="209" edge="1">
                    <mxGeometry relative="1" as="geometry"/>
                </mxCell>
                <mxCell id="207" value="开始加载脚本" style="rounded=0;whiteSpace=wrap;html=1;" parent="1" vertex="1">
                    <mxGeometry x="480" y="1000" width="120" height="60" as="geometry"/>
                </mxCell>
                <mxCell id="208" value="" style="endArrow=classic;html=1;exitX=1;exitY=0.5;exitDx=0;exitDy=0;entryX=0.5;entryY=0;entryDx=0;entryDy=0;" parent="1" source="74" target="207" edge="1">
                    <mxGeometry width="50" height="50" relative="1" as="geometry">
                        <mxPoint x="440" y="980" as="sourcePoint"/>
                        <mxPoint x="490" y="930" as="targetPoint"/>
                        <Array as="points">
                            <mxPoint x="540" y="890"/>
                        </Array>
                    </mxGeometry>
                </mxCell>
                <mxCell id="212" value="" style="edgeStyle=none;html=1;" parent="1" source="209" target="211" edge="1">
                    <mxGeometry relative="1" as="geometry"/>
                </mxCell>
                <mxCell id="209" value="检查脚本合法性" style="whiteSpace=wrap;html=1;rounded=0;" parent="1" vertex="1">
                    <mxGeometry x="480" y="1140" width="120" height="60" as="geometry"/>
                </mxCell>
                <mxCell id="211" value="加载脚本至内存" style="whiteSpace=wrap;html=1;rounded=0;" parent="1" vertex="1">
                    <mxGeometry x="480" y="1280" width="120" height="60" as="geometry"/>
                </mxCell>
                <mxCell id="215" value="" style="edgeStyle=none;html=1;" parent="1" source="213" target="214" edge="1">
                    <mxGeometry relative="1" as="geometry"/>
                </mxCell>
                <mxCell id="213" value="开始加载任务" style="rounded=0;whiteSpace=wrap;html=1;" parent="1" vertex="1">
                    <mxGeometry x="670" y="1000" width="120" height="60" as="geometry"/>
                </mxCell>
                <mxCell id="217" value="" style="edgeStyle=none;html=1;" parent="1" source="214" target="216" edge="1">
                    <mxGeometry relative="1" as="geometry"/>
                </mxCell>
                <mxCell id="235" value="" style="edgeStyle=none;html=1;exitX=1;exitY=0.5;exitDx=0;exitDy=0;" parent="1" source="216" edge="1">
                    <mxGeometry relative="1" as="geometry">
                        <mxPoint x="880" y="1310.0000000000002" as="targetPoint"/>
                    </mxGeometry>
                </mxCell>
                <mxCell id="214" value="检查模板和宏合法性" style="whiteSpace=wrap;html=1;rounded=0;" parent="1" vertex="1">
                    <mxGeometry x="670" y="1140" width="120" height="60" as="geometry"/>
                </mxCell>
                <mxCell id="216" value="加载模板和宏至内存" style="rounded=0;whiteSpace=wrap;html=1;" parent="1" vertex="1">
                    <mxGeometry x="670" y="1280" width="120" height="60" as="geometry"/>
                </mxCell>
                <mxCell id="218" value="生成索引序列" style="whiteSpace=wrap;html=1;rounded=0;" parent="1" vertex="1">
                    <mxGeometry x="574" y="1420" width="120" height="60" as="geometry"/>
                </mxCell>
                <mxCell id="220" value="" style="endArrow=classic;html=1;exitX=0.539;exitY=1;exitDx=0;exitDy=0;exitPerimeter=0;entryX=1;entryY=0.5;entryDx=0;entryDy=0;" parent="1" source="216" target="218" edge="1">
                    <mxGeometry width="50" height="50" relative="1" as="geometry">
                        <mxPoint x="590" y="1410" as="sourcePoint"/>
                        <mxPoint x="640" y="1360" as="targetPoint"/>
                        <Array as="points">
                            <mxPoint x="735" y="1450"/>
                        </Array>
                    </mxGeometry>
                </mxCell>
                <mxCell id="221" value="" style="endArrow=classic;html=1;exitX=0.5;exitY=1;exitDx=0;exitDy=0;entryX=0;entryY=0.5;entryDx=0;entryDy=0;" parent="1" source="211" target="218" edge="1">
                    <mxGeometry width="50" height="50" relative="1" as="geometry">
                        <mxPoint x="590" y="1410" as="sourcePoint"/>
                        <mxPoint x="640" y="1360" as="targetPoint"/>
                        <Array as="points">
                            <mxPoint x="540" y="1450"/>
                        </Array>
                    </mxGeometry>
                </mxCell>
                <mxCell id="226" value="加载流程结束" style="ellipse;whiteSpace=wrap;html=1;" parent="1" vertex="1">
                    <mxGeometry x="294" y="1840" width="120" height="80" as="geometry"/>
                </mxCell>
                <mxCell id="228" value="" style="endArrow=classic;html=1;exitX=0.5;exitY=1;exitDx=0;exitDy=0;entryX=1;entryY=0.5;entryDx=0;entryDy=0;" parent="1" source="162" target="169" edge="1">
                    <mxGeometry relative="1" as="geometry">
                        <mxPoint x="610" y="1690" as="sourcePoint"/>
                        <mxPoint x="710" y="1690" as="targetPoint"/>
                        <Array as="points">
                            <mxPoint x="754" y="1730"/>
                        </Array>
                    </mxGeometry>
                </mxCell>
                <mxCell id="229" value="否" style="edgeLabel;resizable=0;html=1;align=center;verticalAlign=middle;" parent="228" connectable="0" vertex="1">
                    <mxGeometry relative="1" as="geometry"/>
                </mxCell>
                <mxCell id="230" value="" style="endArrow=classic;html=1;exitX=1;exitY=0.5;exitDx=0;exitDy=0;entryX=0.5;entryY=0;entryDx=0;entryDy=0;" parent="1" source="74" target="213" edge="1">
                    <mxGeometry width="50" height="50" relative="1" as="geometry">
                        <mxPoint x="590" y="840" as="sourcePoint"/>
                        <mxPoint x="640" y="790" as="targetPoint"/>
                        <Array as="points">
                            <mxPoint x="730" y="890"/>
                        </Array>
                    </mxGeometry>
                </mxCell>
                <mxCell id="231" value="" style="endArrow=classic;html=1;exitX=0;exitY=0.5;exitDx=0;exitDy=0;" parent="1" source="64" edge="1">
                    <mxGeometry relative="1" as="geometry">
                        <mxPoint x="680" y="670" as="sourcePoint"/>
                        <mxPoint x="530" y="610" as="targetPoint"/>
                        <Array as="points">
                            <mxPoint x="530" y="750"/>
                        </Array>
                    </mxGeometry>
                </mxCell>
                <mxCell id="232" value="校验成功" style="edgeLabel;resizable=0;html=1;align=center;verticalAlign=middle;" parent="231" connectable="0" vertex="1">
                    <mxGeometry relative="1" as="geometry"/>
                </mxCell>
                <mxCell id="233" value="崩溃" style="ellipse;whiteSpace=wrap;html=1;" parent="1" vertex="1">
                    <mxGeometry x="1040" y="410" width="120" height="80" as="geometry"/>
                </mxCell>
                <mxCell id="236" value="崩溃" style="ellipse;whiteSpace=wrap;html=1;" parent="1" vertex="1">
                    <mxGeometry x="850" y="1550" width="120" height="80" as="geometry"/>
                </mxCell>
                <mxCell id="237" value="即时替换" style="rhombus;whiteSpace=wrap;html=1;" parent="1" vertex="1">
                    <mxGeometry x="880" y="1270" width="80" height="80" as="geometry"/>
                </mxCell>
                <mxCell id="238" value="替换模板中的宏" style="whiteSpace=wrap;html=1;" parent="1" vertex="1">
                    <mxGeometry x="1020" y="1280" width="120" height="60" as="geometry"/>
                </mxCell>
                <mxCell id="240" value="" style="endArrow=classic;html=1;exitX=1;exitY=0.5;exitDx=0;exitDy=0;entryX=0;entryY=0.5;entryDx=0;entryDy=0;" parent="1" source="237" target="238" edge="1">
                    <mxGeometry relative="1" as="geometry">
                        <mxPoint x="810" y="1450" as="sourcePoint"/>
                        <mxPoint x="910" y="1450" as="targetPoint"/>
                    </mxGeometry>
                </mxCell>
                <mxCell id="241" value="允许" style="edgeLabel;resizable=0;html=1;align=center;verticalAlign=middle;" parent="240" connectable="0" vertex="1">
                    <mxGeometry relative="1" as="geometry"/>
                </mxCell>
                <mxCell id="243" value="跳过" style="whiteSpace=wrap;html=1;" parent="1" vertex="1">
                    <mxGeometry x="1020" y="1420" width="120" height="60" as="geometry"/>
                </mxCell>
                <mxCell id="246" value="" style="endArrow=classic;html=1;exitX=0.5;exitY=1;exitDx=0;exitDy=0;entryX=0.5;entryY=0;entryDx=0;entryDy=0;" parent="1" source="238" target="243" edge="1">
                    <mxGeometry relative="1" as="geometry">
                        <mxPoint x="1130" y="1230" as="sourcePoint"/>
                        <mxPoint x="1230" y="1230" as="targetPoint"/>
                        <Array as="points"/>
                    </mxGeometry>
                </mxCell>
                <mxCell id="248" value="异常" style="edgeLabel;html=1;align=center;verticalAlign=middle;resizable=0;points=[];" parent="246" vertex="1" connectable="0">
                    <mxGeometry x="-0.0428" y="2" relative="1" as="geometry">
                        <mxPoint as="offset"/>
                    </mxGeometry>
                </mxCell>
                <mxCell id="252" value="" style="edgeStyle=none;html=1;" parent="1" source="249" target="251" edge="1">
                    <mxGeometry relative="1" as="geometry"/>
                </mxCell>
                <mxCell id="249" value="生成崩溃日志" style="rounded=0;whiteSpace=wrap;html=1;" parent="1" vertex="1">
                    <mxGeometry x="1270" y="420" width="120" height="60" as="geometry"/>
                </mxCell>
                <mxCell id="250" value="崩溃的处理" style="text;strokeColor=none;fillColor=none;html=1;fontSize=24;fontStyle=1;verticalAlign=middle;align=center;" parent="1" vertex="1">
                    <mxGeometry x="1280" y="360" width="100" height="40" as="geometry"/>
                </mxCell>
                <mxCell id="258" value="" style="edgeStyle=none;html=1;" parent="1" source="251" target="257" edge="1">
                    <mxGeometry relative="1" as="geometry"/>
                </mxCell>
                <mxCell id="251" value="检查崩溃服务器是否启动" style="whiteSpace=wrap;html=1;rounded=0;" parent="1" vertex="1">
                    <mxGeometry x="1270" y="560" width="120" height="60" as="geometry"/>
                </mxCell>
                <mxCell id="253" value="发送给已有服务器" style="whiteSpace=wrap;html=1;rounded=0;" parent="1" vertex="1">
                    <mxGeometry x="1470" y="560" width="120" height="60" as="geometry"/>
                </mxCell>
                <mxCell id="255" value="" style="endArrow=classic;html=1;exitX=1;exitY=0.5;exitDx=0;exitDy=0;entryX=0;entryY=0.5;entryDx=0;entryDy=0;" parent="1" source="251" target="253" edge="1">
                    <mxGeometry relative="1" as="geometry">
                        <mxPoint x="1158" y="510" as="sourcePoint"/>
                        <mxPoint x="1258" y="510" as="targetPoint"/>
                    </mxGeometry>
                </mxCell>
                <mxCell id="256" value="存在" style="edgeLabel;resizable=0;html=1;align=center;verticalAlign=middle;" parent="255" connectable="0" vertex="1">
                    <mxGeometry relative="1" as="geometry"/>
                </mxCell>
                <mxCell id="260" value="" style="edgeStyle=none;html=1;" parent="1" source="257" target="259" edge="1">
                    <mxGeometry relative="1" as="geometry"/>
                </mxCell>
                <mxCell id="257" value="启动崩溃服务器" style="whiteSpace=wrap;html=1;rounded=0;" parent="1" vertex="1">
                    <mxGeometry x="1270" y="700" width="120" height="60" as="geometry"/>
                </mxCell>
                <mxCell id="262" value="" style="edgeStyle=none;html=1;" parent="1" source="259" target="261" edge="1">
                    <mxGeometry relative="1" as="geometry"/>
                </mxCell>
                <mxCell id="259" value="执行所有模组的Destroy函数" style="whiteSpace=wrap;html=1;rounded=0;" parent="1" vertex="1">
                    <mxGeometry x="1270" y="840" width="120" height="60" as="geometry"/>
                </mxCell>
                <mxCell id="264" value="" style="edgeStyle=none;html=1;" parent="1" source="261" target="263" edge="1">
                    <mxGeometry relative="1" as="geometry"/>
                </mxCell>
                <mxCell id="261" value="卸载所有模组" style="whiteSpace=wrap;html=1;rounded=0;" parent="1" vertex="1">
                    <mxGeometry x="1270" y="980" width="120" height="60" as="geometry"/>
                </mxCell>
                <mxCell id="266" value="" style="edgeStyle=none;html=1;" parent="1" source="263" target="265" edge="1">
                    <mxGeometry relative="1" as="geometry"/>
                </mxCell>
                <mxCell id="263" value="通知崩溃服务器" style="whiteSpace=wrap;html=1;rounded=0;" parent="1" vertex="1">
                    <mxGeometry x="1270" y="1120" width="120" height="60" as="geometry"/>
                </mxCell>
                <mxCell id="265" value="崩溃服务器杀死主服务器" style="whiteSpace=wrap;html=1;rounded=0;" parent="1" vertex="1">
                    <mxGeometry x="1270" y="1260" width="120" height="60" as="geometry"/>
                </mxCell>
                <mxCell id="267" value="" style="endArrow=classic;html=1;exitX=0.5;exitY=1;exitDx=0;exitDy=0;entryX=1;entryY=0.5;entryDx=0;entryDy=0;" parent="1" source="253" target="259" edge="1">
                    <mxGeometry width="50" height="50" relative="1" as="geometry">
                        <mxPoint x="1500" y="750" as="sourcePoint"/>
                        <mxPoint x="1550" y="700" as="targetPoint"/>
                        <Array as="points">
                            <mxPoint x="1530" y="870"/>
                        </Array>
                    </mxGeometry>
                </mxCell>
                <mxCell id="268" value="生成副崩溃日志" style="whiteSpace=wrap;html=1;rounded=0;" parent="1" vertex="1">
                    <mxGeometry x="1070" y="840" width="120" height="60" as="geometry"/>
                </mxCell>
                <mxCell id="270" value="y" style="endArrow=classic;html=1;exitX=0;exitY=0.5;exitDx=0;exitDy=0;entryX=1;entryY=0.5;entryDx=0;entryDy=0;" parent="1" source="259" target="268" edge="1">
                    <mxGeometry relative="1" as="geometry">
                        <mxPoint x="1440" y="990" as="sourcePoint"/>
                        <mxPoint x="1540" y="990" as="targetPoint"/>
                    </mxGeometry>
                </mxCell>
                <mxCell id="271" value="异常" style="edgeLabel;resizable=0;html=1;align=center;verticalAlign=middle;" parent="270" connectable="0" vertex="1">
                    <mxGeometry relative="1" as="geometry"/>
                </mxCell>
                <mxCell id="274" value="" style="edgeStyle=none;html=1;" edge="1" parent="1" source="272" target="273">
                    <mxGeometry relative="1" as="geometry"/>
                </mxCell>
                <mxCell id="272" value="拍摄" style="rounded=0;whiteSpace=wrap;html=1;" vertex="1" parent="1">
                    <mxGeometry x="-1240" y="230" width="120" height="60" as="geometry"/>
                </mxCell>
                <mxCell id="276" value="" style="edgeStyle=none;html=1;" edge="1" parent="1" source="273" target="275">
                    <mxGeometry relative="1" as="geometry"/>
                </mxCell>
                <mxCell id="273" value="下载图像" style="rounded=0;whiteSpace=wrap;html=1;" vertex="1" parent="1">
                    <mxGeometry x="-1040" y="230" width="120" height="60" as="geometry"/>
                </mxCell>
                <mxCell id="281" value="" style="edgeStyle=none;html=1;" edge="1" parent="1" source="275" target="280">
                    <mxGeometry relative="1" as="geometry"/>
                </mxCell>
                <mxCell id="275" value="拍摄" style="rounded=0;whiteSpace=wrap;html=1;" vertex="1" parent="1">
                    <mxGeometry x="-840" y="230" width="120" height="60" as="geometry"/>
                </mxCell>
                <mxCell id="285" value="" style="edgeStyle=none;html=1;" edge="1" parent="1" source="277" target="284">
                    <mxGeometry relative="1" as="geometry"/>
                </mxCell>
                <mxCell id="277" value="处理图像" style="rounded=0;whiteSpace=wrap;html=1;" vertex="1" parent="1">
                    <mxGeometry x="-840" y="350" width="120" height="60" as="geometry"/>
                </mxCell>
                <mxCell id="279" value="" style="endArrow=classic;html=1;exitX=0.5;exitY=1;exitDx=0;exitDy=0;entryX=0;entryY=0.5;entryDx=0;entryDy=0;" edge="1" parent="1" source="273" target="277">
                    <mxGeometry width="50" height="50" relative="1" as="geometry">
                        <mxPoint x="-880" y="330" as="sourcePoint"/>
                        <mxPoint x="-830" y="280" as="targetPoint"/>
                        <Array as="points">
                            <mxPoint x="-980" y="380"/>
                        </Array>
                    </mxGeometry>
                </mxCell>
                <mxCell id="283" value="" style="edgeStyle=none;html=1;" edge="1" parent="1" source="280">
                    <mxGeometry relative="1" as="geometry">
                        <mxPoint x="-420" y="260" as="targetPoint"/>
                    </mxGeometry>
                </mxCell>
                <mxCell id="280" value="下载图像" style="whiteSpace=wrap;html=1;rounded=0;" vertex="1" parent="1">
                    <mxGeometry x="-640" y="230" width="120" height="60" as="geometry"/>
                </mxCell>
                <mxCell id="282" value="等待" style="rhombus;whiteSpace=wrap;html=1;rounded=0;" vertex="1" parent="1">
                    <mxGeometry x="-420" y="220" width="80" height="80" as="geometry"/>
                </mxCell>
                <mxCell id="287" value="" style="edgeStyle=none;html=1;" edge="1" parent="1" source="284" target="286">
                    <mxGeometry relative="1" as="geometry"/>
                </mxCell>
                <mxCell id="284" value="分析结果" style="rhombus;whiteSpace=wrap;html=1;rounded=0;" vertex="1" parent="1">
                    <mxGeometry x="-620" y="340" width="80" height="80" as="geometry"/>
                </mxCell>
                <mxCell id="286" value="进行操作" style="whiteSpace=wrap;html=1;rounded=0;" vertex="1" parent="1">
                    <mxGeometry x="-640" y="510" width="120" height="60" as="geometry"/>
                </mxCell>
                <mxCell id="288" value="" style="endArrow=classic;html=1;exitX=1;exitY=0.5;exitDx=0;exitDy=0;entryX=0.5;entryY=1;entryDx=0;entryDy=0;" edge="1" parent="1" source="284" target="282">
                    <mxGeometry width="50" height="50" relative="1" as="geometry">
                        <mxPoint x="-290" y="450" as="sourcePoint"/>
                        <mxPoint x="-240" y="400" as="targetPoint"/>
                        <Array as="points">
                            <mxPoint x="-380" y="380"/>
                        </Array>
                    </mxGeometry>
                </mxCell>
            </root>
        </mxGraphModel>
    </diagram>
</mxfile>